<svg t="1694661419138" class="icon" viewBox="0 0 1024 1024" version="1.1" xmlns="http://www.w3.org/2000/svg" p-id="6936" width="200" height="200"><path d="M467.30986998 538.3150004C537.29415987 499.63648688 584.59310458 425.22855468 584.59310458 339.59137662c0-125.33653213-101.51691969-226.8534518-226.85345183-226.85345181s-226.8534518 101.51691969-226.8534518 226.85345181c0 85.63717806 47.2989447 160.04511027 117.28323459 198.72362378-52.51657409 17.0140089-100.49607917 46.27810417-140.64914013 86.43116517C40.71195385 691.5545071 3.84826793 780.3676335 3.84826793 874.8520962c0 20.07653048 16.33344852 36.40997902 36.40997903 36.40997899 20.07653048 0 36.40997902-16.33344852 36.40997901-36.40997899 0-74.97506582 29.26409528-145.63991607 82.347803-198.61019709 53.08370772-52.97028099 123.63513124-82.23437629 198.72362378-82.23437629s145.63991607 29.15066855 198.72362381 82.23437629c53.08370772 52.97028099 82.34780301 123.52170452 82.347803 198.61019709 0 20.07653048 16.33344852 36.40997902 36.40997902 36.40997899 20.07653048 0 36.40997902-16.33344852 36.40997902-36.40997899 0-94.48446269-36.86368593-183.29758907-103.67202749-250.10593063-40.15306097-40.15306097-88.13256601-69.41715626-140.64914013-86.43116517zM249.87083643 231.72256027c28.81038838-28.81038838 67.14862174-44.69013002 107.86881632-44.69013001 40.72019461 0 79.05842795 15.87974163 107.86881636 44.69013001 28.81038838 28.81038838 44.69013002 67.14862174 44.69013 107.86881635 0 40.72019461-15.87974163 79.05842795-44.69013 107.86881633-28.81038838 28.81038838-67.14862174 44.69013002-107.86881636 44.69013002-40.72019461 0-79.05842795-15.87974163-107.86881632-44.69013002-28.81038838-28.81038838-44.69013002-67.14862174-44.69013001-107.86881633 0-40.72019461 15.87974163-79.05842795 44.69013001-107.86881635zM757.00172796 366.81379083h226.85345182c20.07653048 0 36.29655229-16.2200218 36.29655229-36.29655228s-16.2200218-36.29655229-36.29655229-36.29655229H757.00172796c-20.07653048 0-36.29655229 16.2200218-36.29655228 36.29655229s16.2200218 36.29655229 36.29655228 36.29655228z" p-id="6937"></path><path d="M983.85517978 475.70344771H666.26034725c-20.07653048 0-36.29655229 16.2200218-36.29655231 36.29655229s16.2200218 36.29655229 36.29655231 36.29655229h317.59483253c20.07653048 0 36.29655229-16.2200218 36.29655229-36.29655229s-16.2200218-36.29655229-36.29655229-36.29655229zM983.85517978 657.18620917H793.29828026c-20.07653048 0-36.29655229 16.2200218-36.2965523 36.29655228s16.2200218 36.29655229 36.2965523 36.29655229h190.55689952c20.07653048 0 36.29655229-16.2200218 36.29655229-36.29655229s-16.2200218-36.29655229-36.29655229-36.29655228z" p-id="6938"></path></svg>
