<svg width="20" height="20" viewBox="0 0 20 20" fill="none" xmlns="http://www.w3.org/2000/svg">
<g id="Frame">
<path id="Vector" d="M10 17C6.14067 17 3 13.8593 3 10C3 6.14067 6.14067 3 10 3C13.8593 3 17 6.14067 17 10C17 13.8593 13.8593 17 10 17ZM10 4.07333C6.731 4.07333 4.07333 6.73333 4.07333 10C4.07333 13.2667 6.731 15.9267 10 15.9267C13.269 15.9267 15.9267 13.269 15.9267 10C15.9267 6.731 13.269 4.07333 10 4.07333ZM13.7046 9.54344C13.581 9.5434 13.4612 9.50064 13.3655 9.42239C13.2698 9.34415 13.2041 9.23524 13.1796 9.11411C13.0273 8.383 12.6282 7.7265 12.0493 7.25477C11.4704 6.78304 10.7468 6.52478 10 6.52333C9.25318 6.52511 8.52967 6.78359 7.95078 7.25542C7.37189 7.72726 6.9728 8.38377 6.82044 9.11489C6.79208 9.25433 6.70949 9.3768 6.59083 9.45535C6.47217 9.53389 6.32717 9.56209 6.18772 9.53372C6.04828 9.50536 5.92581 9.42276 5.84726 9.3041C5.76872 9.18545 5.74053 9.04044 5.76889 8.901C5.97174 7.9282 6.50285 7.0547 7.2732 6.42695C8.04354 5.79921 9.00628 5.45538 10 5.45311C10.9938 5.45542 11.9567 5.79936 12.727 6.42726C13.4974 7.05516 14.0284 7.92883 14.2311 8.90178C14.2466 8.97964 14.2447 9.05999 14.2254 9.13702C14.2062 9.21404 14.17 9.28584 14.1197 9.34722C14.0693 9.4086 14.0059 9.45804 13.9342 9.49197C13.8624 9.5259 13.784 9.54348 13.7046 9.54344ZM10.8789 11.8356C10.8804 11.8309 10.8851 11.8278 10.8867 11.8231L11.6256 10C11.6455 9.95171 11.6489 9.89814 11.6351 9.84774C11.6213 9.79734 11.5911 9.75295 11.5493 9.72156C11.5074 9.69034 11.4564 9.67373 11.4041 9.67429C11.3519 9.67486 11.3012 9.69255 11.26 9.72467L9.72 10.931C9.67062 10.9697 9.62621 11.0144 9.58778 11.064C9.52397 11.1487 9.4787 11.2459 9.45491 11.3493C9.43113 11.4527 9.42936 11.5599 9.44972 11.664C9.47009 11.7681 9.51212 11.8667 9.5731 11.9535C9.63409 12.0403 9.71265 12.1132 9.80368 12.1677C9.89471 12.2221 9.99618 12.2568 10.1015 12.2694C10.2068 12.2821 10.3136 12.2724 10.4149 12.2411C10.5163 12.2098 10.6099 12.1575 10.6897 12.0876C10.7695 12.0177 10.8337 11.9319 10.8781 11.8356H10.8789Z" fill="#8C8C8C"/>
</g>
</svg>
