<svg width="20" height="20" viewBox="0 0 20 20" fill="none" xmlns="http://www.w3.org/2000/svg">
<g id="Frame">
<path id="Vector" d="M8 13.5C8 12.675 8.675 12 9.5 12C10.325 12 11 12.675 11 13.5C11 14.325 10.325 15 9.5 15C8.675 15 8 14.325 8 13.5Z" fill="#8C8C8C"/>
<path id="Vector_2" d="M5 11.5003C5 11.3677 4.96488 11.2405 4.90237 11.1468C4.83986 11.053 4.75507 11.0003 4.66667 11.0003H4.33333C4.24493 11.0003 4.16014 11.053 4.09763 11.1468C4.03512 11.2405 4 11.3677 4 11.5003C4 11.6329 4.03512 11.7601 4.09763 11.8539C4.16014 11.9476 4.24493 12.0003 4.33333 12.0003H4.66667C4.75507 12.0003 4.83986 11.9476 4.90237 11.8539C4.96488 11.7601 5 11.6329 5 11.5003Z" fill="#8C8C8C"/>
<path id="Vector_3" d="M4.94936 16.9998H15.0507C15.344 16.9998 15.6267 16.8781 15.8293 16.6627C17.2271 15.1583 18.0035 13.1719 18 11.1092C18 8.94415 17.168 6.90831 15.6587 5.37806C14.152 3.84458 12.1424 3.00031 10 3.00031C7.85762 3.00031 5.84803 3.84458 4.34136 5.37752C3.59615 6.12994 3.00564 7.02369 2.60383 8.00735C2.20201 8.99102 1.99681 10.0452 2.00004 11.1092C1.99653 13.1734 2.77393 15.161 4.17336 16.6659C4.37336 16.8786 4.65603 17.0003 4.94936 17.0003V16.9998ZM5.09869 6.13618C6.40376 4.80839 8.14402 4.07719 10 4.07719C11.856 4.07719 13.5963 4.80839 14.9019 6.13726C15.5485 6.78985 16.0608 7.5651 16.4095 8.4184C16.7581 9.2717 16.9361 10.1862 16.9333 11.1092C16.9333 12.9065 16.2645 14.6172 15.056 15.9213C15.0544 15.9223 15.0526 15.9228 15.0507 15.9229L4.94936 15.9261C3.73697 14.6212 3.0636 12.8983 3.0667 11.1092C3.0667 9.2306 3.7883 7.46506 5.09869 6.13618Z" fill="#8C8C8C"/>
<path id="Vector_4" d="M9.65149 15.0003C10.5265 15.0003 11.2386 14.3273 11.2386 13.5003C11.2386 13.2693 11.1788 13.0533 11.0799 12.8578L14.2579 9.85381C14.3084 9.80768 14.3487 9.75251 14.3764 9.69151C14.4041 9.63051 14.4187 9.5649 14.4194 9.49851C14.42 9.43212 14.4066 9.36628 14.38 9.30483C14.3534 9.24338 14.3141 9.18755 14.2644 9.14061C14.2147 9.09366 14.1557 9.05653 14.0907 9.03139C14.0256 9.00625 13.956 8.9936 13.8857 8.99418C13.8155 8.99476 13.7461 9.00855 13.6815 9.03475C13.617 9.06096 13.5586 9.09905 13.5098 9.14681L10.3313 12.1508C10.1195 12.053 9.88719 12.0016 9.65149 12.0003C8.77646 12.0003 8.06437 12.6733 8.06437 13.5003C8.06437 14.3273 8.77646 15.0003 9.65149 15.0003ZM9.65149 13.0003C9.75628 13.0002 9.85874 13.0295 9.94591 13.0844C10.0331 13.1394 10.101 13.2176 10.1412 13.309C10.1813 13.4005 10.1919 13.5012 10.1714 13.5983C10.151 13.6955 10.1006 13.7847 10.0265 13.8547C9.95239 13.9247 9.85798 13.9724 9.75521 13.9917C9.65243 14.011 9.54591 14.0011 9.44912 13.9631C9.35233 13.9252 9.26963 13.8609 9.21148 13.7786C9.15333 13.6962 9.12235 13.5993 9.12245 13.5003C9.12245 13.2248 9.35946 13.0003 9.65149 13.0003ZM9.65149 6.50031C9.7918 6.50031 9.92637 6.44763 10.0256 6.35386C10.1248 6.26009 10.1805 6.13291 10.1805 6.00031V5.50031C10.1805 5.3677 10.1248 5.24052 10.0256 5.14675C9.92637 5.05298 9.7918 5.00031 9.65149 5.00031C9.51118 5.00031 9.37662 5.05298 9.2774 5.14675C9.17819 5.24052 9.12245 5.3677 9.12245 5.50031V6.00031C9.12245 6.13291 9.17819 6.26009 9.2774 6.35386C9.37662 6.44763 9.51118 6.50031 9.65149 6.50031ZM14.9419 11.5003H15.471C15.6113 11.5003 15.7458 11.4476 15.845 11.3539C15.9443 11.2601 16 11.1329 16 11.0003C16 10.8677 15.9443 10.7405 15.845 10.6468C15.7458 10.553 15.6113 10.5003 15.471 10.5003H14.9419C14.8016 10.5003 14.667 10.553 14.5678 10.6468C14.4686 10.7405 14.4129 10.8677 14.4129 11.0003C14.4129 11.1329 14.4686 11.2601 14.5678 11.3539C14.667 11.4476 14.8016 11.5003 14.9419 11.5003ZM5.53713 7.81881C5.58615 7.8654 5.64443 7.90237 5.70862 7.9276C5.77281 7.95283 5.84164 7.96582 5.91116 7.96582C5.98068 7.96582 6.04952 7.95283 6.11371 7.9276C6.1779 7.90237 6.23618 7.8654 6.2852 7.81881C6.38438 7.72504 6.44009 7.59789 6.44009 7.46531C6.44009 7.33272 6.38438 7.20557 6.2852 7.1118L5.90958 6.7568C5.86077 6.70905 5.8024 6.67096 5.73785 6.64475C5.67331 6.61855 5.60389 6.60476 5.53364 6.60418C5.46339 6.6036 5.39373 6.61625 5.32871 6.64139C5.26369 6.66653 5.20463 6.70366 5.15495 6.75061C5.10528 6.79755 5.066 6.85338 5.0394 6.91483C5.0128 6.97628 4.99941 7.04212 5.00002 7.10851C5.00063 7.1749 5.01522 7.24051 5.04295 7.30151C5.07068 7.36251 5.11098 7.41768 5.16151 7.46381L5.53713 7.81881ZM13.3918 7.96531C13.4613 7.96537 13.5301 7.95247 13.5943 7.92732C13.6585 7.90218 13.7168 7.8653 13.7659 7.81881L14.1415 7.46381C14.192 7.41768 14.2323 7.36251 14.26 7.30151C14.2878 7.24051 14.3024 7.1749 14.303 7.10851C14.3036 7.04212 14.2902 6.97628 14.2636 6.91483C14.237 6.85338 14.1977 6.79755 14.148 6.75061C14.0984 6.70366 14.0393 6.66653 13.9743 6.64139C13.9093 6.61625 13.8396 6.6036 13.7693 6.60418C13.6991 6.60476 13.6297 6.61855 13.5651 6.64475C13.5006 6.67096 13.4422 6.70905 13.3934 6.7568L13.0178 7.1118C12.9438 7.18173 12.8935 7.27081 12.8731 7.36779C12.8526 7.46477 12.8631 7.56528 12.9032 7.65663C12.9432 7.74798 13.011 7.82606 13.098 7.88101C13.1849 7.93595 13.2872 7.96528 13.3918 7.96531Z" fill="#8C8C8C"/>
</g>
</svg>
