<svg width="42" height="42" viewBox="0 0 42 42" fill="none" xmlns="http://www.w3.org/2000/svg">
<g id="Frame">
<path id="Vector" d="M12.25 34.0734L29.75 34.0734L29.75 9.57336L12.25 9.57336L12.25 34.0734ZM8.75 35.8234L8.75 7.82336C8.75 7.35923 8.93437 6.91412 9.26256 6.58593C9.59075 6.25774 10.0359 6.07336 10.5 6.07336L31.5 6.07336C31.9641 6.07336 32.4092 6.25774 32.7374 6.58593C33.0656 6.91411 33.25 7.35923 33.25 7.82336L33.25 35.8234C33.25 36.2875 33.0656 36.7326 32.7374 37.0608C32.4092 37.389 31.9641 37.5734 31.5 37.5734L10.5 37.5734C10.0359 37.5734 9.59075 37.389 9.26256 37.0608C8.93437 36.7326 8.75 36.2875 8.75 35.8234ZM15.75 4.32336L15.75 0.823364L26.25 0.823363L26.25 4.32336L15.75 4.32336Z" fill="#168AFF"/>
</g>
</svg>
