<svg width="20" height="20" viewBox="0 0 20 20" fill="none" xmlns="http://www.w3.org/2000/svg">
<g id="Frame">
<path id="Vector" d="M2.95025 17.85C2.81752 17.85 2.68687 17.817 2.57009 17.7539C2.4533 17.6908 2.35404 17.5997 2.28124 17.4887C2.20844 17.3777 2.16439 17.2503 2.15307 17.1181C2.14174 16.9858 2.16349 16.8529 2.21635 16.7311L6.48755 6.9022C6.56837 6.71639 6.71663 6.56812 6.90245 6.4873L16.7313 2.21621C16.8783 2.15229 17.0412 2.13404 17.1987 2.16382C17.3563 2.1936 17.5012 2.27004 17.6148 2.38322C17.7284 2.4964 17.8054 2.6411 17.8357 2.79855C17.866 2.956 17.8483 3.11893 17.785 3.26621L13.5424 13.1235C13.4614 13.3114 13.3116 13.4612 13.1238 13.5421L3.26635 17.7849C3.1665 17.8279 3.05895 17.85 2.95025 17.85ZM7.82935 7.82921L4.48865 15.5168L12.1987 12.1983L15.5171 4.4884L7.82935 7.82921Z" fill="#8C8C8C"/>
<path id="Vector_2" d="M8.5 10C8.5 10.197 8.5388 10.392 8.61418 10.574C8.68956 10.756 8.80005 10.9214 8.93934 11.0607C9.07863 11.1999 9.24399 11.3104 9.42597 11.3858C9.60796 11.4612 9.80302 11.5 10 11.5C10.197 11.5 10.392 11.4612 10.574 11.3858C10.756 11.3104 10.9214 11.1999 11.0607 11.0607C11.1999 10.9214 11.3104 10.756 11.3858 10.574C11.4612 10.392 11.5 10.197 11.5 10C11.5 9.60217 11.342 9.22064 11.0607 8.93934C10.7794 8.65804 10.3978 8.5 10 8.5C9.60217 8.5 9.22064 8.65804 8.93934 8.93934C8.65804 9.22064 8.5 9.60217 8.5 10Z" fill="#8C8C8C"/>
</g>
</svg>
