<svg width="20" height="20" viewBox="0 0 20 20" fill="none" xmlns="http://www.w3.org/2000/svg">
<g id="icon_&#229;&#174;&#154;&#228;&#189;&#141;">
<path id="Subtract" fill-rule="evenodd" clip-rule="evenodd" d="M4.62499 12.75L8.62499 17.2916C9.20833 18.125 10.4583 18.125 11.0833 17.3333L15.25 12.9166C18.5417 8.66664 15.75 2.33331 10.4167 2.08331H10.0833C9.58333 2.08331 9.12499 2.12498 8.66666 2.20831C3.91666 3.08331 1.74999 8.79165 4.62499 12.75ZM6.92042 10.0256C6.75291 9.62121 6.66669 9.18776 6.66669 8.75002C6.66669 7.86597 7.01788 7.01812 7.643 6.393C8.26812 5.76788 9.11597 5.41669 10 5.41669C10.8841 5.41669 11.7319 5.76788 12.357 6.393C12.9822 7.01812 13.3334 7.86597 13.3334 8.75002C13.3334 9.18776 13.2471 9.62121 13.0796 10.0256C12.9121 10.43 12.6666 10.7975 12.357 11.107C12.0475 11.4166 11.68 11.6621 11.2756 11.8296C10.8712 11.9971 10.4378 12.0834 10 12.0834C9.56228 12.0834 9.12883 11.9971 8.72441 11.8296C8.31999 11.6621 7.95253 11.4166 7.643 11.107C7.33347 10.7975 7.08794 10.43 6.92042 10.0256Z" fill="white"/>
</g>
</svg>
