<svg width="20" height="20" viewBox="0 0 20 20" fill="none" xmlns="http://www.w3.org/2000/svg">
<g id="Frame 14">
<g clip-path="url(#clip0_54_1122)">
<rect width="20" height="20" rx="10" fill="#168AFF"/>
<g id="Frame">
<path id="Vector" d="M4.48749 6.93749C4.36041 6.93749 4.23333 6.90207 4.11874 6.82707C3.81249 6.62291 3.72916 6.21041 3.93124 5.90207C5.28958 3.85624 7.56458 2.63541 10.0187 2.63541C12.4479 2.63541 14.7104 3.83957 16.0729 5.85416C16.2792 6.15832 16.1979 6.57291 15.8937 6.77916C15.5896 6.98541 15.175 6.90416 14.9687 6.59999C13.8542 4.94999 12.0042 3.96666 10.0187 3.96666C8.01458 3.96666 6.15416 4.96457 5.04374 6.63749C4.91458 6.83124 4.70416 6.93749 4.48749 6.93749Z" fill="white"/>
<path id="Vector_2" d="M13.6542 15.4458C13.3958 15.4458 13.1479 15.2937 13.0396 15.0396L9.98958 7.88958L6.96667 15.0375C6.82292 15.3771 6.43125 15.5354 6.09375 15.3917C5.75417 15.2479 5.59583 14.8562 5.73958 14.5187L9.25417 6.20833L9.27292 6.175C9.41875 5.91875 9.69167 5.76041 9.9875 5.75833C10.2812 5.75833 10.5563 5.91666 10.7021 6.17291L10.7208 6.20625L10.7354 6.24166L14.2646 14.5167C14.4083 14.8562 14.2521 15.2479 13.9125 15.3917C13.8292 15.4292 13.7396 15.4458 13.6542 15.4458ZM7.21458 11.7604H12.5958H7.21458Z" fill="white"/>
<path id="Vector_3" d="M7.2146 11.0938H12.5979V12.4271H7.2146V11.0938Z" fill="white"/>
</g>
</g>
</g>
<defs>
<clipPath id="clip0_54_1122">
<rect width="20" height="20" rx="10" fill="white"/>
</clipPath>
</defs>
</svg>
