<svg t="1725504886638" class="icon" viewBox="0 0 1024 1024" version="1.1" xmlns="http://www.w3.org/2000/svg" p-id="1409" width="200" height="200"><path d="M419.32892407 29.76999737l-337.72258186 235.37913036a162.1068391 162.1068391 0 0 0-69.43576317 132.92760806v456.9791794a162.1068391 162.1068391 0 0 0 162.1068391 162.1068391h675.44516372a162.1068391 162.1068391 0 0 0 162.1068391-162.1068391V398.13077058a162.1068391 162.1068391 0 0 0-69.43576317-132.98164285l-337.72258186-235.37913036a162.1068391 162.1068391 0 0 0-185.34215186 0z m123.57944618 88.61840494l337.72258187 235.4331664a54.03561344 54.03561344 0 0 1 23.12724194 44.30920187v456.92514461a54.03561344 54.03561344 0 0 1-54.0356122 54.0356122H174.27741814a54.03561344 54.03561344 0 0 1-54.0356122-54.0356122V398.13077058a54.03561344 54.03561344 0 0 1 23.12724194-44.30920187l337.72258187-235.4331664a54.03561344 54.03561344 0 0 1 61.8167405 0z" p-id="1410"></path><path d="M512 530.84223701a189.12464521 189.12464521 0 0 0-189.12464521 189.12464518v297.1958721h378.24929042v-297.1958721a189.12464521 189.12464521 0 0 0-189.12464521-189.12464518z m2.05335286 108.07122563a81.05341955 81.05341955 0 0 1 79.00006669 81.05341955v189.1246452h-162.1068391v-189.1246452a81.05341955 81.05341955 0 0 1 81.05341955-81.05341955h2.05335286z" p-id="1411"></path></svg>
