<svg t="1725504852259" class="icon" viewBox="0 0 1024 1024" version="1.1" xmlns="http://www.w3.org/2000/svg" p-id="1409" width="200" height="200"><path d="M627.53151788 6.68258791a159.57391974 159.57391974 0 0 1 112.76556954 46.7551585l203.72270503 203.61632159A159.57391974 159.57391974 0 0 1 990.72175922 369.87282925V857.74349236a159.57391974 159.57391974 0 0 1-159.57391974 159.57391973H192.85216052a159.57391974 159.57391974 0 0 1-159.57391974-159.57391973v-691.48698472a159.57391974 159.57391974 0 0 1 159.57391974-159.57391973h434.67935736z m0 106.38261275H192.85216052a53.19130698 53.19130698 0 0 0-53.19130699 53.19130698v691.48698472a53.19130698 53.19130698 0 0 0 53.19130699 53.19130698h638.29567896a53.19130698 53.19130698 0 0 0 53.19130699-53.19130698V369.87282925a53.19130698 53.19130698 0 0 0-15.58505368-37.6062546L665.19096295 128.65025305a53.19130698 53.19130698 0 0 0-37.60625333-15.58505239zM724.76522672 565.19130698a53.19130698 53.19130698 0 1 1 0 106.38261276H299.23477328a53.19130698 53.19130698 0 1 1 0-106.38261276h425.53045344z m-212.76522672-212.76522672a53.19130698 53.19130698 0 1 1 0 106.38261276H299.23477328a53.19130698 53.19130698 0 1 1 0-106.38261276h212.76522672z" p-id="1410"></path></svg>
