<svg t="1725504812543" class="icon" viewBox="0 0 1024 1024" version="1.1" xmlns="http://www.w3.org/2000/svg" p-id="1409" width="200" height="200"><path d="M141.74188382 74.63185212a45.44084685 45.44084685 0 0 1 44.35026548 35.44386026l0.27264507 1.4086666 21.31175737 110.8302246h672.34276476a136.32253949 136.32253949 0 0 1 136.32253949 134.05049753v2.27204196c0 7.81582595-0.6816127 15.63165083-1.99939689 23.35659545l-59.30030469 340.80634873a136.32253949 136.32253949 0 0 1-134.27770139 112.96594405H337.45560933a136.32253949 136.32253949 0 0 1-134.27770139-112.96594405l-77.70384751-446.77440311-21.26631616-110.51213833H50.86019012a45.44084685 45.44084685 0 0 1-45.44084579-44.03218025v-1.40866659a45.44084685 45.44084685 0 0 1 44.03218027-45.44084685H141.74188382z m738.27743268 238.5644441H224.17157901l68.52479617 394.01758033a45.44084685 45.44084685 0 0 0 44.75923415 37.6704621h483.30884369a45.44084685 45.44084685 0 0 0 44.75923309-37.6704621l59.25486455-340.80634872a45.44084685 45.44084685 0 0 0-44.75923416-53.21123161z m-459.95224823 568.01058192a45.44084685 45.44084685 0 0 1 1.40866659 90.88169264H329.18537562a45.44084685 45.44084685 0 0 1-1.40866658-90.88169264h92.29035923z m420.32783044 0a45.44084685 45.44084685 0 0 1 1.40866553 90.88169264h-92.29035922a45.44084685 45.44084685 0 0 1-1.40866554-90.88169264h92.29035923z" p-id="1410"></path></svg>
