<svg t="1725504756165" class="icon" viewBox="0 0 1024 1024" version="1.1" xmlns="http://www.w3.org/2000/svg" p-id="1559" width="200" height="200"><path d="M410.61011087 82.58400061c137.55625847 0 249.01356638 111.88672392 249.01356751 249.77697298a249.53840892 249.53840892 0 0 1-85.78777447 188.65676239A407.08636742 407.08636742 0 0 1 816.16966623 893.7031102a47.71288919 47.71288919 0 0 1-46.23378926 47.71288919H52.76344471a47.71288919 47.71288919 0 0 1-47.71288806-47.71288919c0-166.51798235 99.62451186-309.65664883 242.38147447-372.63766095a249.53840892 249.53840892 0 0 1-85.83548662-188.70447566C161.5965445 194.47072452 273.05385241 82.58400061 410.61011087 82.58400061z m274.34911148 77.53344396a208.74388897 208.74388897 0 0 1 147.57596512 356.36756735 333.99022212 333.99022212 0 0 1 186.41425588 299.68465431 47.71288919 47.71288919 0 0 1-95.42577727 1.47909993v-1.47909993a238.56444373 238.56444373 0 0 0-238.56444373-238.56444373 47.71288919 47.71288919 0 1 1 0-95.42577839 113.31811057 113.31811057 0 1 0 0-226.63622115 47.71288919 47.71288919 0 1 1 0-95.42577839z m-274.34911148 422.06821525c-152.58581845 0-279.4543902 110.69390244-305.36248771 256.55220245l-0.71569332 4.43729867-0.47712927 2.81506118H717.1654223l-0.47712925-2.86277332c-23.4747413-144.90404372-146.57399446-256.21821297-296.34475285-260.7986503l-4.58043733-0.09542652-5.10527873-0.04771216z m0-404.17588194a153.96949185 153.96949185 0 0 0-153.5877891 154.35119571 153.96949185 153.96949185 0 0 0 153.5877891 154.39890786 153.96949185 153.96949185 0 0 0 153.58778913-154.39890786A153.96949185 153.96949185 0 0 0 410.61011087 178.00977788z" p-id="1560"></path></svg>
