<svg width="200" height="200" viewBox="0 0 200 200" fill="none" xmlns="http://www.w3.org/2000/svg">
<g id="&#231;&#169;&#186;&#231;&#138;&#182;&#230;&#128;&#129;_&#230;&#151;&#160;&#230;&#149;&#176;&#230;&#141;&#174;">
<g id="Group">
<g id="Group_2">
<g id="Group_3">
<path id="Vector" fill-rule="evenodd" clip-rule="evenodd" d="M186.719 139.258L186.68 140.039L186.543 140.84L186.309 141.621L185.996 142.422L185.566 143.223L185.039 144.043L184.355 144.922L183.535 145.82L182.559 146.719L181.426 147.656L180.117 148.594L178.496 149.629L176.641 150.684L174.531 151.738L172.148 152.813L169.805 153.75L167.227 154.688L164.414 155.605L161.328 156.523L155.078 158.125L148.105 159.57L140.918 160.781L133.184 161.816L127.969 162.363L122.559 162.832L116.992 163.203L111.426 163.457L105.762 163.613L100 163.672L94.2383 163.613L88.5742 163.457L83.0078 163.203L77.4414 162.832L72.0312 162.363L66.8164 161.816L59.082 160.781L51.8945 159.57L44.9219 158.125L38.6719 156.523L35.5859 155.605L32.7734 154.688L30.1953 153.75L27.8516 152.813L25.4687 151.738L23.3594 150.684L21.5039 149.629L19.8828 148.594L18.5742 147.656L17.4414 146.719L16.4648 145.82L15.6445 144.922L14.9609 144.043L14.4336 143.223L14.0039 142.422L13.6914 141.621L13.457 140.84L13.3203 140.039L13.2812 139.258L13.3203 138.477L13.457 137.695L13.6914 136.895L14.0039 136.094L14.4336 135.293L14.9609 134.473L15.6445 133.594L16.4648 132.695L17.4414 131.797L18.5742 130.859L19.8828 129.922L21.5039 128.887L23.3594 127.832L25.4687 126.777L27.8516 125.703L30.1953 124.766L32.7734 123.828L35.5859 122.91L38.6719 121.992L44.9219 120.391L51.8945 118.945L59.082 117.734L66.8164 116.699L72.0312 116.152L77.4414 115.684L83.0078 115.313L88.5742 115.059L94.2383 114.902L100 114.844L105.762 114.902L111.426 115.059L116.992 115.313L122.559 115.684L127.969 116.152L133.184 116.699L140.918 117.734L148.105 118.945L155.078 120.391L161.328 121.992L164.414 122.91L167.227 123.828L169.805 124.766L172.148 125.703L174.531 126.777L176.641 127.832L178.496 128.887L180.117 129.922L181.426 130.859L182.559 131.797L183.535 132.695L184.355 133.594L185.039 134.473L185.566 135.293L185.996 136.094L186.309 136.895L186.543 137.695L186.68 138.477L186.719 139.258Z" fill="url(#paint0_linear_266_2656)"/>
</g>
<path id="Vector_2" fill-rule="evenodd" clip-rule="evenodd" d="M11.5039 135.801L8.32031 140.215L1.5625 148.672L108.398 146.973L75.2148 133.379L11.5039 135.801Z" fill="url(#paint1_linear_266_2656)"/>
</g>
<path id="&#231;&#159;&#169;&#229;&#189;&#162;" fill-rule="evenodd" clip-rule="evenodd" d="M55.0781 86.1328L109.375 93.3008L108.398 146.973L57.6758 140.859L56.7383 140.586L56.3477 140.352L55.6641 139.707L55.2344 138.887L55.0781 137.93V86.1328Z" fill="url(#paint2_linear_266_2656)"/>
<g id="Group_4">
<path id="&#231;&#159;&#169;&#229;&#189;&#162;&#229;&#164;&#135;&#228;&#187;&#189;" fill-rule="evenodd" clip-rule="evenodd" d="M143.789 78.9062L108.398 94.3555V147.07L141.992 132.832L142.5 132.559L142.93 132.187L143.301 131.758L143.555 131.25L143.73 130.723L143.789 130.137V78.9062Z" fill="url(#paint3_linear_266_2656)"/>
</g>
<path id="&#231;&#159;&#169;&#229;&#189;&#162;_2" fill-rule="evenodd" clip-rule="evenodd" d="M108.398 94.3555L143.789 78.9062L154.57 94.7461L154.805 95.1563L154.941 95.5664L155 96.0156V96.4453L154.766 97.2852L154.551 97.6758L154.258 98.0078L153.555 98.5156L124.414 112.559L123.652 112.773H122.871L122.129 112.52L121.504 112.07L108.398 94.3555Z" fill="url(#paint4_linear_266_2656)"/>
<g id="Group_5">
<path id="&#231;&#159;&#169;&#229;&#189;&#162;&#229;&#164;&#135;&#228;&#187;&#189;-2" fill-rule="evenodd" clip-rule="evenodd" d="M109.375 93.2617L55.0586 85.9375L44.2969 100.742L44.043 101.152L43.8867 101.562L43.8086 102.012L43.8672 102.871L44.2187 103.672L44.4922 104.023L44.8633 104.336L45.5859 104.707L45.9766 104.805L93.75 112.07L94.2187 112.09L94.6875 112.051L95.1172 111.914L95.5273 111.699L95.8984 111.406L96.2109 111.055L109.375 93.2617Z" fill="url(#paint5_linear_266_2656)"/>
</g>
<path id="&#232;&#183;&#175;&#229;&#190;&#132;-2" fill-rule="evenodd" clip-rule="evenodd" d="M55.0781 85.9375L93.1641 73.0469V91.7969L55.0781 85.9375Z" fill="url(#paint6_linear_266_2656)"/>
<path id="&#232;&#183;&#175;&#229;&#190;&#132;-3" fill-rule="evenodd" clip-rule="evenodd" d="M93.1641 73.0469L143.789 78.9062L108.457 94.3359L93.1641 91.6602V73.0469Z" fill="url(#paint7_linear_266_2656)"/>
<path id="&#232;&#183;&#175;&#229;&#190;&#132;-6" fill-rule="evenodd" clip-rule="evenodd" d="M121.602 61.1719L118.477 64.4336L123.379 73.0469L121.602 61.1719Z" fill="url(#paint8_linear_266_2656)"/>
<path id="&#232;&#183;&#175;&#229;&#190;&#132;-7" fill-rule="evenodd" clip-rule="evenodd" d="M126.094 59.2773L132.324 62.0898L124.844 73.0469L126.094 59.2773Z" fill="url(#paint9_linear_266_2656)"/>
<path id="&#232;&#183;&#175;&#229;&#190;&#132;-8" fill-rule="evenodd" clip-rule="evenodd" d="M133.613 66.0156L134.473 70.1758L126.855 74.1016L133.613 66.0156Z" fill="url(#paint10_linear_266_2656)"/>
</g>
</g>
<defs>
<linearGradient id="paint0_linear_266_2656" x1="100" y1="114.844" x2="100" y2="163.672" gradientUnits="userSpaceOnUse">
<stop stop-color="#EDEEF1"/>
<stop offset="1" stop-color="#F1F5FD" stop-opacity="0"/>
</linearGradient>
<linearGradient id="paint1_linear_266_2656" x1="9.08759" y1="140.894" x2="63.4462" y2="148.568" gradientUnits="userSpaceOnUse">
<stop stop-color="#CFCFCF" stop-opacity="0"/>
<stop offset="1" stop-opacity="0.1"/>
</linearGradient>
<linearGradient id="paint2_linear_266_2656" x1="84.3743" y1="101.636" x2="103.079" y2="142.941" gradientUnits="userSpaceOnUse">
<stop stop-color="#CED9E4"/>
<stop offset="1" stop-color="#F5F5FA"/>
</linearGradient>
<linearGradient id="paint3_linear_266_2656" x1="131.794" y1="98.8218" x2="110.341" y2="115.876" gradientUnits="userSpaceOnUse">
<stop stop-color="#E0EBF6"/>
<stop offset="1" stop-color="#F9FCFF"/>
</linearGradient>
<linearGradient id="paint4_linear_266_2656" x1="111.969" y1="96.6024" x2="149.818" y2="91.0184" gradientUnits="userSpaceOnUse">
<stop stop-color="#F6FAFF"/>
<stop offset="1" stop-color="#E6EDF6"/>
</linearGradient>
<linearGradient id="paint5_linear_266_2656" x1="107.783" y1="98.419" x2="47.2571" y2="104.365" gradientUnits="userSpaceOnUse">
<stop stop-color="#FBFDFF"/>
<stop offset="0.0933949" stop-color="white"/>
<stop offset="1" stop-color="#E4ECF5"/>
</linearGradient>
<linearGradient id="paint6_linear_266_2656" x1="93.1641" y1="82.7809" x2="55.9759" y2="85.2373" gradientUnits="userSpaceOnUse">
<stop stop-color="#E1E8F3"/>
<stop offset="1" stop-color="#F0F0F0"/>
</linearGradient>
<linearGradient id="paint7_linear_266_2656" x1="93.1641" y1="83.5435" x2="143.571" y2="79.8864" gradientUnits="userSpaceOnUse">
<stop stop-color="#DAE1EB"/>
<stop offset="1" stop-color="#E6E9F0"/>
</linearGradient>
<linearGradient id="paint8_linear_266_2656" x1="120.928" y1="61.1719" x2="120.928" y2="73.0469" gradientUnits="userSpaceOnUse">
<stop stop-color="#FD9B38"/>
<stop offset="1" stop-color="#FF690D"/>
</linearGradient>
<linearGradient id="paint9_linear_266_2656" x1="128.584" y1="59.2773" x2="128.584" y2="73.0469" gradientUnits="userSpaceOnUse">
<stop stop-color="#FD9B38"/>
<stop offset="1" stop-color="#FF690D"/>
</linearGradient>
<linearGradient id="paint10_linear_266_2656" x1="130.664" y1="66.0156" x2="130.664" y2="74.1016" gradientUnits="userSpaceOnUse">
<stop stop-color="#FD9B38"/>
<stop offset="1" stop-color="#FF690D"/>
</linearGradient>
</defs>
</svg>
