<svg width="24" height="24" viewBox="0 0 24 24" fill="none" xmlns="http://www.w3.org/2000/svg">
<g id="Frame">
<path id="Vector" d="M14.3055 6.1845C14.4462 6.0439 14.6369 5.96491 14.8358 5.96491C15.0346 5.96491 15.2254 6.0439 15.366 6.1845L18.549 9.366C18.6896 9.50665 18.7686 9.69738 18.7686 9.89625C18.7686 10.0951 18.6896 10.2859 18.549 10.4265L12.1845 16.791C12.0439 16.9316 11.8531 17.0106 11.6543 17.0106C11.4554 17.0106 11.2647 16.9316 11.124 16.791L7.94102 13.6095C7.80042 13.4689 7.72143 13.2781 7.72143 13.0793C7.72143 12.8804 7.80042 12.6896 7.94102 12.549L14.3055 6.1845ZM14.8365 7.7745L9.53252 13.08L11.6535 15.201L16.9575 9.8985L14.835 7.776L14.8365 7.7745ZM16.9545 13.0785C17.0952 12.9379 17.2859 12.8589 17.4848 12.8589C17.6836 12.8589 17.8744 12.9379 18.015 13.0785L22.257 17.3205C22.3976 17.4611 22.4766 17.6519 22.4766 17.8508C22.4766 18.0496 22.3976 18.2404 22.257 18.381L19.0755 21.564C18.9349 21.7046 18.7441 21.7836 18.5453 21.7836C18.3464 21.7836 18.1557 21.7046 18.015 21.564L13.77 17.3205C13.6294 17.1799 13.5504 16.9891 13.5504 16.7903C13.5504 16.5914 13.6294 16.4006 13.77 16.26L16.953 13.0785H16.9545ZM17.484 14.6685L15.363 16.791L18.5445 19.971L20.667 17.8515L17.484 14.6685ZM6.34802 2.4735C6.48866 2.3329 6.6794 2.25391 6.87827 2.25391C7.07714 2.25391 7.26787 2.3329 7.40852 2.4735L11.652 6.7155C11.7926 6.85615 11.8716 7.04688 11.8716 7.24575C11.8716 7.44463 11.7926 7.63536 11.652 7.776L8.46902 10.9575C8.32837 11.0981 8.13764 11.1771 7.93877 11.1771C7.7399 11.1771 7.54916 11.0981 7.40852 10.9575L3.16652 6.7155C3.02592 6.57486 2.94693 6.38413 2.94693 6.18525C2.94693 5.98638 3.02592 5.79565 3.16652 5.655L6.34802 2.4735ZM6.87902 4.0635L4.75802 6.1845L7.93802 9.3675L10.062 7.245L6.87902 4.0635ZM5.28752 15.2025C5.42816 15.0619 5.6189 14.9829 5.81777 14.9829C6.01664 14.9829 6.20737 15.0619 6.34802 15.2025L9.53102 18.384C9.66764 18.5255 9.74323 18.7149 9.74152 18.9116C9.73982 19.1082 9.66094 19.2963 9.52188 19.4354C9.38283 19.5744 9.19472 19.6533 8.99807 19.655C8.80142 19.6567 8.61197 19.5811 8.47052 19.4445L5.28752 16.263C5.14692 16.1224 5.06793 15.9316 5.06793 15.7328C5.06793 15.5339 5.14692 15.3431 5.28752 15.2025ZM2.63402 16.7925C2.77466 16.6519 2.9654 16.5729 3.16427 16.5729C3.36314 16.5729 3.55387 16.6519 3.69452 16.7925L7.93652 21.036C8.00815 21.1052 8.06529 21.1879 8.1046 21.2794C8.1439 21.371 8.16459 21.4694 8.16546 21.569C8.16632 21.6685 8.14735 21.7673 8.10963 21.8595C8.07192 21.9516 8.01623 22.0354 7.94581 22.1058C7.8754 22.1762 7.79166 22.2319 7.69948 22.2696C7.60731 22.3073 7.50855 22.3263 7.40897 22.3254C7.30938 22.3246 7.21097 22.3039 7.11947 22.2646C7.02796 22.2253 6.9452 22.1681 6.87602 22.0965L2.63402 17.853C2.49342 17.7124 2.41443 17.5216 2.41443 17.3228C2.41443 17.1239 2.49342 16.9331 2.63402 16.7925Z" fill="#8C8C8C"/>
</g>
</svg>
