<svg width="20" height="20" viewBox="0 0 20 20" fill="none" xmlns="http://www.w3.org/2000/svg">
<g id="Frame">
<path id="Vector" d="M14.6298 3.68001H15.5898C15.8298 3.68001 15.9898 3.52001 15.9898 3.36001C15.9898 3.20001 15.8298 3.04001 15.5898 3.04001H14.6298C14.3898 3.04001 14.2298 3.20001 14.2298 3.36001C14.3098 3.60001 14.4698 3.68001 14.6298 3.68001ZM15.5898 5.36001C15.8298 5.36001 15.9098 5.28001 15.9898 5.12001C16.0698 4.88001 15.9098 4.72001 15.5898 4.72001H14.4698C14.3098 4.80001 14.2298 4.88001 14.2298 5.04001C14.2298 5.20001 14.3898 5.28001 14.6298 5.28001H15.1098L15.5898 5.36001ZM11.1898 13.04C11.1098 13.04 11.1098 12.96 11.1098 12.88V7.44001V4.56001C11.1098 4.32001 10.9498 4.08001 10.7098 3.92001C10.3098 3.68001 9.90979 3.68001 9.42979 3.76001C9.02979 3.84001 8.70979 4.08001 8.70979 4.56001V12.8C8.70979 12.88 8.70979 12.88 8.62979 12.96C7.18979 13.52 6.62979 14.8 7.10979 16C7.66979 17.2 9.34979 17.84 10.7898 17.44C12.1498 17.04 13.0298 16 12.8698 14.8C12.7098 14.08 12.1498 13.44 11.1898 13.04Z" fill="#FF8400"/>
<path id="Vector_2" d="M15.6698 14.48C15.5098 13.44 14.8698 12.56 13.9898 11.76C13.9098 11.68 13.9098 11.68 13.9098 11.6V5.83998V2.71999C13.9098 2.23999 13.7498 1.75999 13.3498 1.35999C12.9498 0.879985 12.3898 0.559985 11.6698 0.319985C10.2298 -0.160015 8.78981 -0.080015 7.42981 0.559985C6.94981 0.799985 6.62981 1.03998 6.30981 1.43998C5.98981 1.83998 5.82981 2.31998 5.82981 2.79998V11.6C5.82981 11.68 5.82981 11.76 5.74981 11.76C4.30981 13.04 3.74981 14.48 4.14981 16.16C4.78981 18.64 7.66981 20.24 10.7098 19.92C11.8298 19.76 12.8698 19.44 13.7498 18.72C15.2698 17.68 15.9098 16.24 15.6698 14.48ZM14.0698 15.84C13.8298 16.8 13.2698 17.6 12.2298 18.16C11.6698 18.48 11.1098 18.64 10.3898 18.72C9.18981 18.88 8.06981 18.56 7.10981 17.92C6.30981 17.36 5.82981 16.72 5.58981 15.92C5.26981 14.56 5.74981 13.44 7.02981 12.56C7.10981 12.48 7.26981 12.4 7.34981 12.32C7.42981 12.24 7.34981 12.08 7.34981 12V2.87998C7.34981 2.39998 7.58981 1.99998 8.14981 1.75998C8.78981 1.43998 9.42981 1.35999 10.1498 1.35999C10.7098 1.43999 11.1898 1.51998 11.6698 1.83999C12.0698 2.07998 12.3098 2.39998 12.3098 2.87998V12.24C12.3098 12.32 12.3098 12.4 12.3898 12.48C13.0298 12.88 13.5098 13.36 13.7498 13.92C14.1498 14.48 14.2298 15.12 14.0698 15.84Z" fill="#FF8400"/>
<path id="Vector_3" d="M15.5898 6.16H14.6298C14.3898 6.16 14.2298 6.32 14.2298 6.48C14.2298 6.64 14.3898 6.8 14.6298 6.8H15.5898C15.8298 6.8 15.9898 6.64 15.9898 6.48C15.9898 6.32 15.8298 6.16 15.5898 6.16ZM15.5898 7.68H14.6298C14.3898 7.68 14.2298 7.84 14.2298 8C14.2298 8.16 14.3898 8.32 14.6298 8.32H15.5898C15.8298 8.32 15.9898 8.16 15.9898 8C15.9898 7.76 15.8298 7.68 15.5898 7.68Z" fill="#FF8400"/>
</g>
</svg>
