<svg t="1725504906330" class="icon" viewBox="0 0 1024 1024" version="1.1" xmlns="http://www.w3.org/2000/svg" p-id="1409" width="200" height="200"><path d="M466.51198349 54.11856786a93.78972362 93.78972362 0 0 1 126.52233803 34.70219752l410.7052017 704.17324805A93.7428295 93.7428295 0 0 1 922.79899105 934.05375795H101.24790417a93.78972362 93.78972362 0 0 1-81.03432152-141.05974452l410.79899106-704.12635283a93.78972362 93.78972362 0 0 1 33.76430064-33.76430063l1.68821501-0.93789799zM512 136.1376815L101.24790417 840.26403432H922.79899105L512 136.1376815zM512 676.13201662a46.89486235 46.89486235 0 1 1 0 93.7897247 46.89486235 46.89486235 0 0 1 0-93.7897247z m0-316.54031847a46.89486235 46.89486235 0 0 1 46.89486235 46.89486237v187.57944833a46.89486235 46.89486235 0 1 1-93.7897247 0v-187.57944833a46.89486235 46.89486235 0 0 1 46.89486235-46.89486237z" p-id="1410"></path></svg>
