<svg width="20" height="20" viewBox="0 0 20 20" fill="none" xmlns="http://www.w3.org/2000/svg">
<g id="Frame 14">
<rect width="20" height="20" rx="10" fill="#0CB52B"/>
<path id="Vector" d="M10 17.5C8.01088 17.5 6.10322 16.7098 4.6967 15.3033C3.29018 13.8968 2.5 11.9891 2.5 10C2.5 8.01088 3.29018 6.10322 4.6967 4.6967C6.10322 3.29018 8.01088 2.5 10 2.5C10.891 2.5235 11.7745 2.67074 12.625 2.9375C12.7797 2.99913 12.9048 3.11777 12.9746 3.26894C13.0444 3.42012 13.0535 3.59231 13 3.75C12.9384 3.90468 12.8197 4.0298 12.6686 4.09958C12.5174 4.16935 12.3452 4.17845 12.1875 4.125C11.4855 3.8743 10.7454 3.74741 10 3.75C8.76387 3.75 7.55549 4.11656 6.52769 4.80331C5.49988 5.49007 4.6988 6.46619 4.22575 7.60823C3.75271 8.75027 3.62893 10.0069 3.87009 11.2193C4.11125 12.4317 4.7065 13.5453 5.58058 14.4194C6.45466 15.2935 7.5683 15.8888 8.78069 16.1299C9.99307 16.3711 11.2497 16.2473 12.3918 15.7742C13.5338 15.3012 14.5099 14.5001 15.1967 13.4723C15.8834 12.4445 16.25 11.2361 16.25 10C16.249 8.898 15.9464 7.81729 15.375 6.875C15.331 6.80097 15.3023 6.71887 15.2906 6.63355C15.2789 6.54823 15.2845 6.46143 15.3069 6.37829C15.3294 6.29515 15.3683 6.21736 15.4213 6.14953C15.4744 6.08169 15.5405 6.02519 15.6158 5.98337C15.691 5.94155 15.7739 5.91526 15.8596 5.90605C15.9452 5.89684 16.0318 5.90491 16.1142 5.92977C16.1967 5.95463 16.2733 5.99578 16.3396 6.05079C16.4058 6.10579 16.4604 6.17353 16.5 6.25C17.1435 7.39599 17.4874 8.68579 17.5 10C17.4942 11.9873 16.7022 13.8917 15.2969 15.2969C13.8917 16.7022 11.9873 17.4942 10 17.5Z" fill="white"/>
<path id="Vector_2" d="M9.99998 13.8125C9.87939 13.8138 9.76123 13.7787 9.66089 13.7118C9.56055 13.6449 9.4827 13.5493 9.43748 13.4375L6.87498 8.06252C6.83945 7.91989 6.85533 7.7693 6.91982 7.63722C6.98431 7.50513 7.09329 7.4 7.22761 7.34031C7.36193 7.28061 7.51299 7.27016 7.65425 7.3108C7.79551 7.35144 7.91792 7.44057 7.99998 7.56252L9.99998 11.8125L12 7.50002C12.022 7.41148 12.0632 7.32885 12.1206 7.25792C12.178 7.187 12.2502 7.1295 12.3322 7.08946C12.4142 7.04943 12.504 7.02784 12.5952 7.02619C12.6864 7.02455 12.7769 7.0429 12.8603 7.07996C12.9437 7.11702 13.0179 7.17188 13.0778 7.24069C13.1377 7.30951 13.1819 7.39061 13.2071 7.47829C13.2323 7.56598 13.238 7.65812 13.2238 7.74825C13.2097 7.83838 13.1759 7.92432 13.125 8.00002L10.5625 13.375C10.5306 13.5 10.458 13.6109 10.3561 13.6901C10.2543 13.7693 10.129 13.8124 9.99998 13.8125Z" fill="white"/>
</g>
</svg>
