<svg width="20" height="20" viewBox="0 0 20 20" fill="none" xmlns="http://www.w3.org/2000/svg">
<g id="Frame" clip-path="url(#clip0_55_1580)">
<path id="Vector" d="M18.4375 17.5H16.25V10.625C16.25 8.9674 15.5915 7.37769 14.4194 6.20558C13.2473 5.03348 11.6576 4.375 10 4.375C8.3424 4.375 6.75269 5.03348 5.58058 6.20558C4.40848 7.37769 3.75 8.9674 3.75 10.625V17.5H1.5625C1.47962 17.5 1.40013 17.5329 1.34153 17.5915C1.28292 17.6501 1.25 17.7296 1.25 17.8125V19.0625C1.25 19.1454 1.28292 19.2249 1.34153 19.2835C1.40013 19.3421 1.47962 19.375 1.5625 19.375H18.4375C18.5204 19.375 18.5999 19.3421 18.6585 19.2835C18.7171 19.2249 18.75 19.1454 18.75 19.0625V17.8125C18.75 17.7296 18.7171 17.6501 18.6585 17.5915C18.5999 17.5329 18.5204 17.5 18.4375 17.5Z" fill="#D62D25"/>
<path id="Vector_2" d="M9.0625 0.625H10.9375V3.125H9.0625V0.625Z" fill="#D62D25"/>
<path id="Vector_3" d="M4.18927 2.43427L5.81307 1.49677L7.06307 3.66183L5.43927 4.59933L4.18927 2.43427Z" fill="#D62D25"/>
<path id="Vector_4" d="M0.869171 6.4363L1.80667 4.8125L3.97173 6.0625L3.03423 7.6863L0.869171 6.4363Z" fill="#D62D25"/>
<path id="Vector_5" d="M16.0282 6.06177L18.1932 4.81177L19.1307 6.43557L16.9657 7.68557L16.0282 6.06177Z" fill="#D62D25"/>
<path id="Vector_6" d="M12.9362 3.65994L14.1862 1.49487L15.81 2.43237L14.56 4.59744L12.9362 3.65994Z" fill="#D62D25"/>
<path id="Vector_7" d="M12.475 10.3125H10.4906L10.8625 7.71562C10.8663 7.68264 10.8595 7.6493 10.8431 7.62044C10.8267 7.59158 10.8015 7.5687 10.7712 7.55511C10.7409 7.54153 10.7071 7.53795 10.6746 7.5449C10.6421 7.55185 10.6127 7.56895 10.5906 7.59374L7.40625 11.3062C7.38732 11.329 7.37522 11.3566 7.37138 11.3859C7.36754 11.4153 7.3721 11.4451 7.38454 11.4719C7.39698 11.4988 7.41678 11.5215 7.44165 11.5376C7.46651 11.5536 7.49542 11.5622 7.525 11.5625H9.50938L9.1375 14.1594C9.13369 14.1924 9.14049 14.2257 9.15691 14.2546C9.17332 14.2834 9.19851 14.3063 9.22881 14.3199C9.2591 14.3335 9.29294 14.337 9.32541 14.3301C9.35788 14.3231 9.38729 14.306 9.40938 14.2812L12.5938 10.5687C12.6127 10.546 12.6248 10.5184 12.6286 10.489C12.6325 10.4597 12.6279 10.4299 12.6155 10.403C12.603 10.3762 12.5832 10.3534 12.5584 10.3374C12.5335 10.3214 12.5046 10.3127 12.475 10.3125Z" fill="white"/>
</g>
<defs>
<clipPath id="clip0_55_1580">
<rect width="20" height="20" fill="white"/>
</clipPath>
</defs>
</svg>
